<svg width="75" height="83" viewBox="0 0 75 83" fill="none" xmlns="http://www.w3.org/2000/svg">
<path fill-rule="evenodd" clip-rule="evenodd" d="M47.9612 15.7329C46.7896 14.5613 46.7896 12.6618 47.9612 11.4903L58.437 1.01445C59.6086 -0.157127 61.5081 -0.157127 62.6796 1.01445L73.1555 11.4903C74.327 12.6618 74.327 14.5613 73.1555 15.7329C71.9839 16.9045 70.0844 16.9045 68.9128 15.7329L63.5581 10.3782V28.3738C63.5581 30.0306 62.215 31.3738 60.5581 31.3738C58.9013 31.3738 57.5581 30.0306 57.5581 28.3738V10.3786L52.2038 15.7329C51.0323 16.9045 49.1328 16.9045 47.9612 15.7329ZM6.36719 29.8087C6.36719 23.7336 11.2921 18.8087 17.3672 18.8087H35.9507C37.6075 18.8087 38.9507 17.4656 38.9507 15.8087C38.9507 14.1519 37.6075 12.8087 35.9507 12.8087H17.3672C7.97835 12.8087 0.367188 20.4199 0.367188 29.8087V65.8087C0.367188 75.1976 7.97835 82.8087 17.3672 82.8087H53.3672C62.756 82.8087 70.3672 75.1976 70.3672 65.8087V42.1063C70.3672 40.4494 69.024 39.1063 67.3672 39.1063C65.7103 39.1063 64.3672 40.4494 64.3672 42.1063V47.3433C62.916 45.7627 61.2538 44.4044 59.3983 43.3406C53.9615 40.2239 47.214 39.8436 40.0913 43.2922C33.1208 46.6671 26.6924 53.4758 21.8576 60.2151C17.9206 65.7032 14.7762 71.5187 13.1894 75.9876C9.18613 74.3428 6.36719 70.405 6.36719 65.8087V29.8087ZM19.2921 76.8087H53.3672C59.4423 76.8087 64.3672 71.8839 64.3672 65.8087V59.568C62.9651 54.6148 60.0746 50.6444 56.4142 48.546C52.8366 46.495 48.1947 46.035 42.706 48.6925C37.065 51.4236 31.3463 57.2818 26.7329 63.7126C23.319 68.4713 20.7279 73.2361 19.2921 76.8087ZM22.4868 32.8517C20.2777 32.8517 18.4868 34.6425 18.4868 36.8517C18.4868 39.0608 20.2777 40.8517 22.4868 40.8517C24.696 40.8517 26.4868 39.0608 26.4868 36.8517C26.4868 34.6425 24.696 32.8517 22.4868 32.8517ZM12.4868 36.8517C12.4868 31.3288 16.964 26.8517 22.4868 26.8517C28.0097 26.8517 32.4868 31.3288 32.4868 36.8517C32.4868 42.3745 28.0097 46.8517 22.4868 46.8517C16.964 46.8517 12.4868 42.3745 12.4868 36.8517Z" fill="currentColor"/>
</svg>
